<mxfile host="app.diagrams.net" agent="Mozilla/5.0 (Windows NT 10.0; Win64; x64) AppleWebKit/537.36 (KHTML, like Gecko) Chrome/134.0.0.0 Safari/537.36" version="26.1.0">
  <diagram name="Page-1" id="Ya_Iz-QYtRMNvtRLF-wc">
    <mxGraphModel dx="1668" dy="1353" grid="0" gridSize="10" guides="1" tooltips="1" connect="1" arrows="1" fold="1" page="0" pageScale="1" pageWidth="850" pageHeight="1100" math="0" shadow="0">
      <root>
        <mxCell id="0" />
        <mxCell id="1" parent="0" />
        <mxCell id="APCj0JSwbc9c1mAj5rAP-33" value="" style="endArrow=block;endSize=16;endFill=0;html=1;rounded=0;fontSize=12;curved=1;exitX=0.002;exitY=0.86;exitDx=0;exitDy=0;exitPerimeter=0;" edge="1" parent="1">
          <mxGeometry x="-0.0722" y="29" width="160" relative="1" as="geometry">
            <mxPoint x="455.8180000000002" y="146.4000000000001" as="sourcePoint" />
            <mxPoint x="291" y="145" as="targetPoint" />
            <mxPoint as="offset" />
          </mxGeometry>
        </mxCell>
        <mxCell id="APCj0JSwbc9c1mAj5rAP-34" value="" style="endArrow=block;endSize=16;endFill=0;html=1;rounded=0;fontSize=12;curved=1;exitX=0.488;exitY=1.025;exitDx=0;exitDy=0;exitPerimeter=0;entryX=0.5;entryY=0;entryDx=0;entryDy=0;" edge="1" parent="1">
          <mxGeometry x="-0.0458" y="33" width="160" relative="1" as="geometry">
            <mxPoint x="34.34400000000005" y="32.09999999999991" as="sourcePoint" />
            <mxPoint x="35.5" y="97" as="targetPoint" />
            <mxPoint as="offset" />
          </mxGeometry>
        </mxCell>
        <mxCell id="APCj0JSwbc9c1mAj5rAP-143" value="- funciones" style="text;strokeColor=none;fillColor=none;align=left;verticalAlign=top;spacingLeft=4;spacingRight=4;overflow=hidden;rotatable=0;points=[[0,0.5],[1,0.5]];portConstraint=eastwest;whiteSpace=wrap;html=1;" vertex="1" parent="1">
          <mxGeometry x="-58" y="625" width="100" height="26" as="geometry" />
        </mxCell>
        <mxCell id="APCj0JSwbc9c1mAj5rAP-157" value="" style="group;fontStyle=0" vertex="1" connectable="0" parent="1">
          <mxGeometry x="-65" y="-35" width="1559" height="1378" as="geometry" />
        </mxCell>
        <mxCell id="APCj0JSwbc9c1mAj5rAP-158" value="" style="shape=folder;fontStyle=1;spacingTop=10;tabWidth=40;tabHeight=14;tabPosition=left;html=1;whiteSpace=wrap;" vertex="1" parent="APCj0JSwbc9c1mAj5rAP-157">
          <mxGeometry x="-397" y="-17" width="1951" height="1216" as="geometry" />
        </mxCell>
        <mxCell id="APCj0JSwbc9c1mAj5rAP-159" value="" style="shape=folder;fontStyle=1;spacingTop=10;tabWidth=40;tabHeight=14;tabPosition=left;html=1;whiteSpace=wrap;" vertex="1" parent="APCj0JSwbc9c1mAj5rAP-157">
          <mxGeometry x="820" y="670" width="702" height="362" as="geometry" />
        </mxCell>
        <mxCell id="APCj0JSwbc9c1mAj5rAP-160" value="" style="shape=folder;fontStyle=1;spacingTop=10;tabWidth=40;tabHeight=14;tabPosition=left;html=1;whiteSpace=wrap;" vertex="1" parent="APCj0JSwbc9c1mAj5rAP-157">
          <mxGeometry x="832" y="53" width="670" height="506" as="geometry" />
        </mxCell>
        <mxCell id="APCj0JSwbc9c1mAj5rAP-161" value="Compra" style="swimlane;fontStyle=1;align=center;verticalAlign=top;childLayout=stackLayout;horizontal=1;startSize=26;horizontalStack=0;resizeParent=1;resizeParentMax=0;resizeLast=0;collapsible=1;marginBottom=0;whiteSpace=wrap;html=1;" vertex="1" parent="APCj0JSwbc9c1mAj5rAP-157">
          <mxGeometry x="921" y="797.5" width="281" height="183" as="geometry" />
        </mxCell>
        <mxCell id="APCj0JSwbc9c1mAj5rAP-162" value="- metodoPago: String&lt;div&gt;- monto: double&lt;div&gt;- fechaTransaccion: String&lt;/div&gt;&lt;/div&gt;" style="text;strokeColor=none;fillColor=none;align=left;verticalAlign=top;spacingLeft=4;spacingRight=4;overflow=hidden;rotatable=0;points=[[0,0.5],[1,0.5]];portConstraint=eastwest;whiteSpace=wrap;html=1;" vertex="1" parent="APCj0JSwbc9c1mAj5rAP-161">
          <mxGeometry y="26" width="281" height="52" as="geometry" />
        </mxCell>
        <mxCell id="APCj0JSwbc9c1mAj5rAP-163" value="" style="line;strokeWidth=1;fillColor=none;align=left;verticalAlign=middle;spacingTop=-1;spacingLeft=3;spacingRight=3;rotatable=0;labelPosition=right;points=[];portConstraint=eastwest;strokeColor=inherit;" vertex="1" parent="APCj0JSwbc9c1mAj5rAP-161">
          <mxGeometry y="78" width="281" height="2" as="geometry" />
        </mxCell>
        <mxCell id="APCj0JSwbc9c1mAj5rAP-164" value="+ Compra(String metodoPago, double monto, String fechaTransaccion)&lt;div&gt;+ getMetodoPago(): String&lt;/div&gt;&lt;div&gt;+ getMonto(): double&lt;/div&gt;&lt;div&gt;+ getFechaTransaccion(): String&lt;/div&gt;&lt;div&gt;+ getAsientosComprados(): List&amp;lt;Asientos&amp;gt;&lt;/div&gt;" style="text;strokeColor=none;fillColor=none;align=left;verticalAlign=top;spacingLeft=4;spacingRight=4;overflow=hidden;rotatable=0;points=[[0,0.5],[1,0.5]];portConstraint=eastwest;whiteSpace=wrap;html=1;" vertex="1" parent="APCj0JSwbc9c1mAj5rAP-161">
          <mxGeometry y="80" width="281" height="103" as="geometry" />
        </mxCell>
        <mxCell id="APCj0JSwbc9c1mAj5rAP-165" value="1..*" style="text;strokeColor=none;fillColor=none;align=left;verticalAlign=top;spacingLeft=4;spacingRight=4;overflow=hidden;rotatable=0;points=[[0,0.5],[1,0.5]];portConstraint=eastwest;whiteSpace=wrap;html=1;" vertex="1" parent="APCj0JSwbc9c1mAj5rAP-157">
          <mxGeometry x="42" y="954" width="31" height="26" as="geometry" />
        </mxCell>
        <mxCell id="APCj0JSwbc9c1mAj5rAP-166" value="Funcion" style="swimlane;fontStyle=1;align=center;verticalAlign=top;childLayout=stackLayout;horizontal=1;startSize=26;horizontalStack=0;resizeParent=1;resizeParentMax=0;resizeLast=0;collapsible=1;marginBottom=0;whiteSpace=wrap;html=1;" vertex="1" parent="APCj0JSwbc9c1mAj5rAP-157">
          <mxGeometry x="80" y="602" width="241" height="247" as="geometry" />
        </mxCell>
        <mxCell id="APCj0JSwbc9c1mAj5rAP-167" value="- fecha: String&lt;div&gt;- hora: String&lt;/div&gt;&lt;div&gt;- boletosVendidos: int&lt;/div&gt;" style="text;strokeColor=none;fillColor=none;align=left;verticalAlign=top;spacingLeft=4;spacingRight=4;overflow=hidden;rotatable=0;points=[[0,0.5],[1,0.5]];portConstraint=eastwest;whiteSpace=wrap;html=1;" vertex="1" parent="APCj0JSwbc9c1mAj5rAP-166">
          <mxGeometry y="26" width="241" height="53" as="geometry" />
        </mxCell>
        <mxCell id="APCj0JSwbc9c1mAj5rAP-168" value="" style="line;strokeWidth=1;fillColor=none;align=left;verticalAlign=middle;spacingTop=-1;spacingLeft=3;spacingRight=3;rotatable=0;labelPosition=right;points=[];portConstraint=eastwest;strokeColor=inherit;" vertex="1" parent="APCj0JSwbc9c1mAj5rAP-166">
          <mxGeometry y="79" width="241" height="2" as="geometry" />
        </mxCell>
        <mxCell id="APCj0JSwbc9c1mAj5rAP-169" value="&lt;div&gt;+ Funcion(String fecha, String hora, Sala sala, Pelicula pelicula)&lt;/div&gt;+ getFecha(): String&lt;div&gt;+ getHora(): String&lt;/div&gt;&lt;div&gt;+ getboletosVendidos: int&lt;/div&gt;&lt;div&gt;+ getSala(). Sala&lt;/div&gt;&lt;div&gt;+ getAsientosDisponibles(): List&amp;lt;Asiento&amp;gt;&lt;/div&gt;&lt;div&gt;+ setFecha(): void&lt;/div&gt;&lt;div&gt;+ setHora(): void&lt;/div&gt;&lt;div&gt;+ setSala(Sala): void&lt;/div&gt;&lt;div&gt;+ usarAsiento(Asiento): void&lt;/div&gt;" style="text;strokeColor=none;fillColor=none;align=left;verticalAlign=top;spacingLeft=4;spacingRight=4;overflow=hidden;rotatable=0;points=[[0,0.5],[1,0.5]];portConstraint=eastwest;whiteSpace=wrap;html=1;" vertex="1" parent="APCj0JSwbc9c1mAj5rAP-166">
          <mxGeometry y="81" width="241" height="166" as="geometry" />
        </mxCell>
        <mxCell id="APCj0JSwbc9c1mAj5rAP-170" value="Asiento" style="swimlane;fontStyle=1;align=center;verticalAlign=top;childLayout=stackLayout;horizontal=1;startSize=26;horizontalStack=0;resizeParent=1;resizeParentMax=0;resizeLast=0;collapsible=1;marginBottom=0;whiteSpace=wrap;html=1;" vertex="1" parent="APCj0JSwbc9c1mAj5rAP-157">
          <mxGeometry x="456" y="895" width="203" height="186" as="geometry" />
        </mxCell>
        <mxCell id="APCj0JSwbc9c1mAj5rAP-171" value="- numero: int&lt;div&gt;- numeroFila: String&lt;/div&gt;&lt;div&gt;- tipo: String&lt;/div&gt;" style="text;strokeColor=none;fillColor=none;align=left;verticalAlign=top;spacingLeft=4;spacingRight=4;overflow=hidden;rotatable=0;points=[[0,0.5],[1,0.5]];portConstraint=eastwest;whiteSpace=wrap;html=1;" vertex="1" parent="APCj0JSwbc9c1mAj5rAP-170">
          <mxGeometry y="26" width="203" height="59" as="geometry" />
        </mxCell>
        <mxCell id="APCj0JSwbc9c1mAj5rAP-172" value="" style="line;strokeWidth=1;fillColor=none;align=left;verticalAlign=middle;spacingTop=-1;spacingLeft=3;spacingRight=3;rotatable=0;labelPosition=right;points=[];portConstraint=eastwest;strokeColor=inherit;" vertex="1" parent="APCj0JSwbc9c1mAj5rAP-170">
          <mxGeometry y="85" width="203" height="2" as="geometry" />
        </mxCell>
        <mxCell id="APCj0JSwbc9c1mAj5rAP-173" value="&lt;div&gt;+ Asiento(int numero, String numeroFila, String tipo, Sala sala)&lt;/div&gt;+ getNumero(): int&lt;div&gt;+ getNumeroFila(): String&lt;/div&gt;&lt;div&gt;+ getTipo(): String&lt;/div&gt;&lt;div&gt;+ getSala(): Sala&lt;/div&gt;" style="text;strokeColor=none;fillColor=none;align=left;verticalAlign=top;spacingLeft=4;spacingRight=4;overflow=hidden;rotatable=0;points=[[0,0.5],[1,0.5]];portConstraint=eastwest;whiteSpace=wrap;html=1;" vertex="1" parent="APCj0JSwbc9c1mAj5rAP-170">
          <mxGeometry y="87" width="203" height="99" as="geometry" />
        </mxCell>
        <mxCell id="APCj0JSwbc9c1mAj5rAP-174" value="- asientos" style="text;strokeColor=none;fillColor=none;align=left;verticalAlign=top;spacingLeft=4;spacingRight=4;overflow=hidden;rotatable=0;points=[[0,0.5],[1,0.5]];portConstraint=eastwest;whiteSpace=wrap;html=1;" vertex="1" parent="APCj0JSwbc9c1mAj5rAP-157">
          <mxGeometry x="395" y="969" width="65" height="26" as="geometry" />
        </mxCell>
        <mxCell id="APCj0JSwbc9c1mAj5rAP-175" value="- sala" style="text;strokeColor=none;fillColor=none;align=left;verticalAlign=top;spacingLeft=4;spacingRight=4;overflow=hidden;rotatable=0;points=[[0,0.5],[1,0.5]];portConstraint=eastwest;whiteSpace=wrap;html=1;" vertex="1" parent="APCj0JSwbc9c1mAj5rAP-157">
          <mxGeometry x="328" y="969" width="100" height="26" as="geometry" />
        </mxCell>
        <mxCell id="APCj0JSwbc9c1mAj5rAP-176" value="1..*" style="edgeLabel;resizable=0;html=1;align=right;verticalAlign=bottom;" connectable="0" vertex="1" parent="APCj0JSwbc9c1mAj5rAP-157">
          <mxGeometry x="554.0019158717266" y="876.0015621414761" as="geometry" />
        </mxCell>
        <mxCell id="APCj0JSwbc9c1mAj5rAP-177" value="- asientosDisponibles" style="text;strokeColor=none;fillColor=none;align=left;verticalAlign=top;spacingLeft=4;spacingRight=4;overflow=hidden;rotatable=0;points=[[0,0.5],[1,0.5]];portConstraint=eastwest;whiteSpace=wrap;html=1;" vertex="1" parent="APCj0JSwbc9c1mAj5rAP-157">
          <mxGeometry x="382" y="755" width="129" height="26" as="geometry" />
        </mxCell>
        <mxCell id="APCj0JSwbc9c1mAj5rAP-178" value="1..*" style="edgeLabel;resizable=0;html=1;align=right;verticalAlign=bottom;" connectable="0" vertex="1" parent="APCj0JSwbc9c1mAj5rAP-157">
          <mxGeometry x="685.0019158717266" y="943.0015621414761" as="geometry" />
        </mxCell>
        <mxCell id="APCj0JSwbc9c1mAj5rAP-179" value="- asientosComprados" style="text;strokeColor=none;fillColor=none;align=left;verticalAlign=top;spacingLeft=4;spacingRight=4;overflow=hidden;rotatable=0;points=[[0,0.5],[1,0.5]];portConstraint=eastwest;whiteSpace=wrap;html=1;" vertex="1" parent="APCj0JSwbc9c1mAj5rAP-157">
          <mxGeometry x="782" y="924" width="129" height="26" as="geometry" />
        </mxCell>
        <mxCell id="APCj0JSwbc9c1mAj5rAP-180" value="Cliente" style="swimlane;fontStyle=1;align=center;verticalAlign=top;childLayout=stackLayout;horizontal=1;startSize=26;horizontalStack=0;resizeParent=1;resizeParentMax=0;resizeLast=0;collapsible=1;marginBottom=0;whiteSpace=wrap;html=1;" vertex="1" parent="APCj0JSwbc9c1mAj5rAP-157">
          <mxGeometry x="872" y="325" width="264" height="223" as="geometry" />
        </mxCell>
        <mxCell id="APCj0JSwbc9c1mAj5rAP-181" value="- id: String&lt;div&gt;- tipo = &quot;Normal&quot;: String&lt;/div&gt;" style="text;strokeColor=none;fillColor=none;align=left;verticalAlign=top;spacingLeft=4;spacingRight=4;overflow=hidden;rotatable=0;points=[[0,0.5],[1,0.5]];portConstraint=eastwest;whiteSpace=wrap;html=1;" vertex="1" parent="APCj0JSwbc9c1mAj5rAP-180">
          <mxGeometry y="26" width="264" height="42" as="geometry" />
        </mxCell>
        <mxCell id="APCj0JSwbc9c1mAj5rAP-182" value="" style="line;strokeWidth=1;fillColor=none;align=left;verticalAlign=middle;spacingTop=-1;spacingLeft=3;spacingRight=3;rotatable=0;labelPosition=right;points=[];portConstraint=eastwest;strokeColor=inherit;" vertex="1" parent="APCj0JSwbc9c1mAj5rAP-180">
          <mxGeometry y="68" width="264" height="2" as="geometry" />
        </mxCell>
        <mxCell id="APCj0JSwbc9c1mAj5rAP-183" value="&lt;div&gt;+ Cliente(String correoElectronico, String contrasena, String id, String tipo)&lt;/div&gt;+ getId(): String&lt;div&gt;+ getTipo(): String&lt;br&gt;&lt;div&gt;+ getHistoriaCompras(): List&amp;lt;Compra&amp;gt;&lt;/div&gt;&lt;div&gt;+ seleccionarCine(): Cine&lt;/div&gt;&lt;div&gt;+ explorarPeliculas(Cine): Pelicula&lt;/div&gt;&lt;div&gt;+ seleccionarFuncion(Cine, Pelicula): Funcion&lt;/div&gt;&lt;div&gt;+ seleccionarAsientos(Funcion): List&amp;lt;Asiento&amp;gt;&lt;/div&gt;&lt;div&gt;+ hacerCompra(List&amp;lt;Asiento&amp;gt;, metodoPago)&lt;/div&gt;&lt;/div&gt;" style="text;strokeColor=none;fillColor=none;align=left;verticalAlign=top;spacingLeft=4;spacingRight=4;overflow=hidden;rotatable=0;points=[[0,0.5],[1,0.5]];portConstraint=eastwest;whiteSpace=wrap;html=1;" vertex="1" parent="APCj0JSwbc9c1mAj5rAP-180">
          <mxGeometry y="70" width="264" height="153" as="geometry" />
        </mxCell>
        <mxCell id="APCj0JSwbc9c1mAj5rAP-184" value="" style="endArrow=open;endFill=1;endSize=12;html=1;rounded=0;fontSize=12;curved=1;exitX=0.72;exitY=0.995;exitDx=0;exitDy=0;exitPerimeter=0;entryX=0.5;entryY=0;entryDx=0;entryDy=0;" edge="1" parent="APCj0JSwbc9c1mAj5rAP-157" source="APCj0JSwbc9c1mAj5rAP-183" target="APCj0JSwbc9c1mAj5rAP-161">
          <mxGeometry width="160" relative="1" as="geometry">
            <mxPoint x="730" y="319" as="sourcePoint" />
            <mxPoint x="711" y="394" as="targetPoint" />
          </mxGeometry>
        </mxCell>
        <mxCell id="APCj0JSwbc9c1mAj5rAP-185" value="Usuario" style="swimlane;fontStyle=1;align=center;verticalAlign=top;childLayout=stackLayout;horizontal=1;startSize=26;horizontalStack=0;resizeParent=1;resizeParentMax=0;resizeLast=0;collapsible=1;marginBottom=0;whiteSpace=wrap;html=1;" vertex="1" parent="APCj0JSwbc9c1mAj5rAP-157">
          <mxGeometry x="864" y="89" width="206" height="178" as="geometry" />
        </mxCell>
        <mxCell id="APCj0JSwbc9c1mAj5rAP-186" value="&lt;span style=&quot;background-color: transparent; color: light-dark(rgb(0, 0, 0), rgb(255, 255, 255));&quot;&gt;# correoElectronico: String&lt;/span&gt;&lt;div&gt;# contrasena: String&lt;/div&gt;" style="text;strokeColor=none;fillColor=none;align=left;verticalAlign=top;spacingLeft=4;spacingRight=4;overflow=hidden;rotatable=0;points=[[0,0.5],[1,0.5]];portConstraint=eastwest;whiteSpace=wrap;html=1;" vertex="1" parent="APCj0JSwbc9c1mAj5rAP-185">
          <mxGeometry y="26" width="206" height="38" as="geometry" />
        </mxCell>
        <mxCell id="APCj0JSwbc9c1mAj5rAP-187" value="" style="line;strokeWidth=1;fillColor=none;align=left;verticalAlign=middle;spacingTop=-1;spacingLeft=3;spacingRight=3;rotatable=0;labelPosition=right;points=[];portConstraint=eastwest;strokeColor=inherit;" vertex="1" parent="APCj0JSwbc9c1mAj5rAP-185">
          <mxGeometry y="64" width="206" height="8" as="geometry" />
        </mxCell>
        <mxCell id="APCj0JSwbc9c1mAj5rAP-188" value="&lt;div&gt;+ Usuario(String correoElectronico, String contrasena)&lt;/div&gt;+ getCorreoElectronico(): String&lt;div&gt;+ getContrasena(): String&lt;/div&gt;&lt;div&gt;+ setCorreoElectronico(String): void&lt;/div&gt;&lt;div&gt;+ setContrasena(String): void&lt;/div&gt;" style="text;strokeColor=none;fillColor=none;align=left;verticalAlign=top;spacingLeft=4;spacingRight=4;overflow=hidden;rotatable=0;points=[[0,0.5],[1,0.5]];portConstraint=eastwest;whiteSpace=wrap;html=1;" vertex="1" parent="APCj0JSwbc9c1mAj5rAP-185">
          <mxGeometry y="72" width="206" height="106" as="geometry" />
        </mxCell>
        <mxCell id="APCj0JSwbc9c1mAj5rAP-189" value="" style="endArrow=block;endSize=16;endFill=0;html=1;rounded=0;fontSize=12;curved=1;exitX=0.442;exitY=-0.002;exitDx=0;exitDy=0;entryX=0.608;entryY=1.01;entryDx=0;entryDy=0;entryPerimeter=0;exitPerimeter=0;" edge="1" parent="APCj0JSwbc9c1mAj5rAP-157" source="APCj0JSwbc9c1mAj5rAP-180" target="APCj0JSwbc9c1mAj5rAP-188">
          <mxGeometry x="-0.0722" y="29" width="160" relative="1" as="geometry">
            <mxPoint x="826" y="131" as="sourcePoint" />
            <mxPoint x="711" y="128" as="targetPoint" />
            <mxPoint as="offset" />
          </mxGeometry>
        </mxCell>
        <mxCell id="APCj0JSwbc9c1mAj5rAP-190" value="Empleado" style="swimlane;fontStyle=1;align=center;verticalAlign=top;childLayout=stackLayout;horizontal=1;startSize=26;horizontalStack=0;resizeParent=1;resizeParentMax=0;resizeLast=0;collapsible=1;marginBottom=0;whiteSpace=wrap;html=1;" vertex="1" parent="APCj0JSwbc9c1mAj5rAP-157">
          <mxGeometry x="1202" y="103" width="228" height="231" as="geometry" />
        </mxCell>
        <mxCell id="APCj0JSwbc9c1mAj5rAP-243" value="- tipo: String" style="text;strokeColor=none;fillColor=none;align=left;verticalAlign=top;spacingLeft=4;spacingRight=4;overflow=hidden;rotatable=0;points=[[0,0.5],[1,0.5]];portConstraint=eastwest;whiteSpace=wrap;html=1;" vertex="1" parent="APCj0JSwbc9c1mAj5rAP-190">
          <mxGeometry y="26" width="228" height="26" as="geometry" />
        </mxCell>
        <mxCell id="APCj0JSwbc9c1mAj5rAP-191" value="" style="line;strokeWidth=1;fillColor=none;align=left;verticalAlign=middle;spacingTop=-1;spacingLeft=3;spacingRight=3;rotatable=0;labelPosition=right;points=[];portConstraint=eastwest;strokeColor=inherit;" vertex="1" parent="APCj0JSwbc9c1mAj5rAP-190">
          <mxGeometry y="52" width="228" height="8" as="geometry" />
        </mxCell>
        <mxCell id="APCj0JSwbc9c1mAj5rAP-192" value="&lt;div&gt;+Empleado(&lt;span style=&quot;background-color: transparent; color: light-dark(rgb(0, 0, 0), rgb(255, 255, 255));&quot;&gt;String correoElectronico, String contrasena, String tipo)&lt;/span&gt;&lt;/div&gt;+ getTipo(): String&lt;div&gt;+ verHorarios(Cine): List&amp;lt;String&amp;gt;&lt;/div&gt;&lt;div&gt;+ boletosVendidos(Cine): int&lt;/div&gt;&lt;div&gt;+ agregarFuncion(Cine, Funcion): void&lt;/div&gt;&lt;div&gt;+ editarFuncion(fecha, hora, sala): void&lt;/div&gt;&lt;div&gt;+ verFuncion(Cine, Pelicula): Funcion&lt;/div&gt;&lt;div&gt;+ agregarPelicula(Pelicula): void&lt;/div&gt;&lt;div&gt;+ verPelicula(Cine): Pelicula&lt;/div&gt;&lt;div&gt;+ agregarSala(&lt;span style=&quot;background-color: transparent; color: light-dark(rgb(0, 0, 0), rgb(255, 255, 255));&quot;&gt;nt, int, String)&lt;/span&gt;&lt;/div&gt;" style="text;strokeColor=none;fillColor=none;align=left;verticalAlign=top;spacingLeft=4;spacingRight=4;overflow=hidden;rotatable=0;points=[[0,0.5],[1,0.5]];portConstraint=eastwest;whiteSpace=wrap;html=1;" vertex="1" parent="APCj0JSwbc9c1mAj5rAP-190">
          <mxGeometry y="60" width="228" height="171" as="geometry" />
        </mxCell>
        <mxCell id="APCj0JSwbc9c1mAj5rAP-193" value="" style="endArrow=block;endSize=16;endFill=0;html=1;rounded=0;fontSize=12;curved=1;entryX=1.001;entryY=0.834;entryDx=0;entryDy=0;entryPerimeter=0;" edge="1" parent="APCj0JSwbc9c1mAj5rAP-157" target="APCj0JSwbc9c1mAj5rAP-186">
          <mxGeometry x="-0.0722" y="29" width="160" relative="1" as="geometry">
            <mxPoint x="1199" y="150" as="sourcePoint" />
            <mxPoint x="798" y="101" as="targetPoint" />
            <mxPoint as="offset" />
          </mxGeometry>
        </mxCell>
        <mxCell id="APCj0JSwbc9c1mAj5rAP-194" value="- historialCompras" style="text;strokeColor=none;fillColor=none;align=left;verticalAlign=top;spacingLeft=4;spacingRight=4;overflow=hidden;rotatable=0;points=[[0,0.5],[1,0.5]];portConstraint=eastwest;whiteSpace=wrap;html=1;" vertex="1" parent="APCj0JSwbc9c1mAj5rAP-157">
          <mxGeometry x="1064" y="659" width="129" height="26" as="geometry" />
        </mxCell>
        <mxCell id="APCj0JSwbc9c1mAj5rAP-195" value="1..*" style="edgeLabel;resizable=0;html=1;align=right;verticalAlign=bottom;" connectable="0" vertex="1" parent="APCj0JSwbc9c1mAj5rAP-157">
          <mxGeometry x="1128.5019158717266" y="689.0015621414761" as="geometry">
            <mxPoint x="-42" y="103" as="offset" />
          </mxGeometry>
        </mxCell>
        <mxCell id="APCj0JSwbc9c1mAj5rAP-196" value="" style="endArrow=open;endFill=1;endSize=12;html=1;rounded=0;fontSize=12;curved=1;exitX=-0.011;exitY=0.686;exitDx=0;exitDy=0;entryX=1;entryY=0.5;entryDx=0;entryDy=0;exitPerimeter=0;" edge="1" parent="APCj0JSwbc9c1mAj5rAP-157" source="APCj0JSwbc9c1mAj5rAP-164" target="APCj0JSwbc9c1mAj5rAP-171">
          <mxGeometry width="160" relative="1" as="geometry">
            <mxPoint x="867" y="682" as="sourcePoint" />
            <mxPoint x="866" y="985" as="targetPoint" />
          </mxGeometry>
        </mxCell>
        <mxCell id="APCj0JSwbc9c1mAj5rAP-200" value="Usuario" style="text;strokeColor=none;fillColor=none;align=left;verticalAlign=top;spacingLeft=4;spacingRight=4;overflow=hidden;rotatable=0;points=[[0,0.5],[1,0.5]];portConstraint=eastwest;whiteSpace=wrap;html=1;" vertex="1" parent="APCj0JSwbc9c1mAj5rAP-157">
          <mxGeometry x="827" y="46" width="100" height="26" as="geometry" />
        </mxCell>
        <mxCell id="APCj0JSwbc9c1mAj5rAP-201" value="Compras" style="text;strokeColor=none;fillColor=none;align=left;verticalAlign=top;spacingLeft=4;spacingRight=4;overflow=hidden;rotatable=0;points=[[0,0.5],[1,0.5]];portConstraint=eastwest;whiteSpace=wrap;html=1;" vertex="1" parent="APCj0JSwbc9c1mAj5rAP-157">
          <mxGeometry x="813" y="664" width="100" height="26" as="geometry" />
        </mxCell>
        <mxCell id="APCj0JSwbc9c1mAj5rAP-203" value="1..*" style="text;strokeColor=none;fillColor=none;align=left;verticalAlign=top;spacingLeft=4;spacingRight=4;overflow=hidden;rotatable=0;points=[[0,0.5],[1,0.5]];portConstraint=eastwest;whiteSpace=wrap;html=1;" vertex="1" parent="APCj0JSwbc9c1mAj5rAP-157">
          <mxGeometry x="30" y="659" width="31" height="26" as="geometry" />
        </mxCell>
        <mxCell id="APCj0JSwbc9c1mAj5rAP-204" value="1" style="text;strokeColor=none;fillColor=none;align=left;verticalAlign=top;spacingLeft=4;spacingRight=4;overflow=hidden;rotatable=0;points=[[0,0.5],[1,0.5]];portConstraint=eastwest;whiteSpace=wrap;html=1;" vertex="1" parent="APCj0JSwbc9c1mAj5rAP-157">
          <mxGeometry x="209" y="544" width="31" height="26" as="geometry" />
        </mxCell>
        <mxCell id="APCj0JSwbc9c1mAj5rAP-205" value="Animada" style="swimlane;fontStyle=1;align=center;verticalAlign=top;childLayout=stackLayout;horizontal=1;startSize=26;horizontalStack=0;resizeParent=1;resizeParentMax=0;resizeLast=0;collapsible=1;marginBottom=0;whiteSpace=wrap;html=1;" vertex="1" parent="APCj0JSwbc9c1mAj5rAP-157">
          <mxGeometry x="395" y="339.5" width="410" height="144" as="geometry" />
        </mxCell>
        <mxCell id="APCj0JSwbc9c1mAj5rAP-206" value="- tecnicaAnimacion: String&lt;div&gt;- tipo = &quot;Animada&quot;: String&lt;/div&gt;" style="text;strokeColor=none;fillColor=none;align=left;verticalAlign=top;spacingLeft=4;spacingRight=4;overflow=hidden;rotatable=0;points=[[0,0.5],[1,0.5]];portConstraint=eastwest;whiteSpace=wrap;html=1;" vertex="1" parent="APCj0JSwbc9c1mAj5rAP-205">
          <mxGeometry y="26" width="410" height="44" as="geometry" />
        </mxCell>
        <mxCell id="APCj0JSwbc9c1mAj5rAP-207" value="" style="line;strokeWidth=1;fillColor=none;align=left;verticalAlign=middle;spacingTop=-1;spacingLeft=3;spacingRight=3;rotatable=0;labelPosition=right;points=[];portConstraint=eastwest;strokeColor=inherit;" vertex="1" parent="APCj0JSwbc9c1mAj5rAP-205">
          <mxGeometry y="70" width="410" height="2" as="geometry" />
        </mxCell>
        <mxCell id="APCj0JSwbc9c1mAj5rAP-208" value="+ Animada(String titulo, String genero, int duracion, String clasificacionPorEdad, String fechaDeEstreno, String tipo, String director, List&amp;lt;String&amp;gt; actoresPrincipales, String tematica, String tecnicaAnimacion)&lt;div&gt;+ getTecnicaAnimacion(): String&lt;/div&gt;" style="text;strokeColor=none;fillColor=none;align=left;verticalAlign=top;spacingLeft=4;spacingRight=4;overflow=hidden;rotatable=0;points=[[0,0.5],[1,0.5]];portConstraint=eastwest;whiteSpace=wrap;html=1;" vertex="1" parent="APCj0JSwbc9c1mAj5rAP-205">
          <mxGeometry y="72" width="410" height="72" as="geometry" />
        </mxCell>
        <mxCell id="APCj0JSwbc9c1mAj5rAP-209" value="&lt;p style=&quot;margin:0px;margin-top:4px;text-align:center;&quot;&gt;&lt;i&gt;&amp;lt;&amp;lt;abstract&amp;gt;&amp;gt;&lt;/i&gt;&lt;br&gt;&lt;b&gt;Pelicula&lt;/b&gt;&lt;/p&gt;&lt;hr size=&quot;1&quot; style=&quot;border-style:solid;&quot;&gt;&lt;p style=&quot;margin:0px;margin-left:4px;&quot;&gt;# titulo: String&lt;br&gt;# genero: String&lt;/p&gt;&lt;p style=&quot;margin:0px;margin-left:4px;&quot;&gt;# duracion: int&lt;/p&gt;&lt;p style=&quot;margin:0px;margin-left:4px;&quot;&gt;# clasificacionPorEdad: String&lt;/p&gt;&lt;p style=&quot;margin:0px;margin-left:4px;&quot;&gt;# fechaDeEstreno: String&lt;/p&gt;&lt;p style=&quot;margin:0px;margin-left:4px;&quot;&gt;# tipo: String&lt;/p&gt;&lt;p style=&quot;margin:0px;margin-left:4px;&quot;&gt;# director: String&lt;/p&gt;&lt;p style=&quot;margin:0px;margin-left:4px;&quot;&gt;# actoresPrincipales: List&amp;lt;String&amp;gt;&lt;/p&gt;&lt;p style=&quot;margin:0px;margin-left:4px;&quot;&gt;# tematica: String&lt;/p&gt;&lt;hr size=&quot;1&quot; style=&quot;border-style:solid;&quot;&gt;&lt;p style=&quot;margin:0px;margin-left:4px;&quot;&gt;+ Pelicula(String titulo, String genero, int duracion, String clasificacionPorEdad, String fechaDeEstreno, String tipo, String director, List&amp;lt;String&amp;gt; actoresPrincipales, String tematica)&lt;/p&gt;&lt;p style=&quot;margin:0px;margin-left:4px;&quot;&gt;+ getTitulo(): String&lt;/p&gt;&lt;p style=&quot;margin:0px;margin-left:4px;&quot;&gt;+ getGenero(): String&lt;/p&gt;&lt;p style=&quot;margin:0px;margin-left:4px;&quot;&gt;+ getDuracion(): int&lt;/p&gt;&lt;p style=&quot;margin:0px;margin-left:4px;&quot;&gt;+ getClasificacionPorEdad(): String&lt;/p&gt;&lt;p style=&quot;margin:0px;margin-left:4px;&quot;&gt;+ getFechaDeEstreno(): String&lt;/p&gt;&lt;p style=&quot;margin:0px;margin-left:4px;&quot;&gt;+ getTipo(): String&lt;/p&gt;&lt;p style=&quot;margin:0px;margin-left:4px;&quot;&gt;+ getDirector(): String&lt;/p&gt;&lt;p style=&quot;margin:0px;margin-left:4px;&quot;&gt;+ getActoresPrincipales(): List&amp;lt;String&amp;gt;&lt;/p&gt;&lt;p style=&quot;margin:0px;margin-left:4px;&quot;&gt;+ getTematica(): String&lt;/p&gt;" style="verticalAlign=top;align=left;overflow=fill;html=1;whiteSpace=wrap;" vertex="1" parent="APCj0JSwbc9c1mAj5rAP-157">
          <mxGeometry x="-282" y="194" width="517" height="348" as="geometry" />
        </mxCell>
        <mxCell id="APCj0JSwbc9c1mAj5rAP-210" value="" style="endArrow=block;endSize=16;endFill=0;html=1;rounded=0;fontSize=12;curved=1;" edge="1" parent="APCj0JSwbc9c1mAj5rAP-157">
          <mxGeometry width="160" relative="1" as="geometry">
            <mxPoint x="394" y="409" as="sourcePoint" />
            <mxPoint x="236" y="407" as="targetPoint" />
          </mxGeometry>
        </mxCell>
        <mxCell id="APCj0JSwbc9c1mAj5rAP-211" value="Sala" style="swimlane;fontStyle=1;align=center;verticalAlign=top;childLayout=stackLayout;horizontal=1;startSize=26;horizontalStack=0;resizeParent=1;resizeParentMax=0;resizeLast=0;collapsible=1;marginBottom=0;whiteSpace=wrap;html=1;" vertex="1" parent="APCj0JSwbc9c1mAj5rAP-157">
          <mxGeometry x="77" y="902" width="256" height="184" as="geometry" />
        </mxCell>
        <mxCell id="APCj0JSwbc9c1mAj5rAP-212" value="- numero: int&lt;div&gt;- capacidadDeAsientos: int&lt;/div&gt;&lt;div&gt;- tipoTecnologia: String&lt;/div&gt;" style="text;strokeColor=none;fillColor=none;align=left;verticalAlign=top;spacingLeft=4;spacingRight=4;overflow=hidden;rotatable=0;points=[[0,0.5],[1,0.5]];portConstraint=eastwest;whiteSpace=wrap;html=1;" vertex="1" parent="APCj0JSwbc9c1mAj5rAP-211">
          <mxGeometry y="26" width="256" height="59" as="geometry" />
        </mxCell>
        <mxCell id="APCj0JSwbc9c1mAj5rAP-213" value="" style="line;strokeWidth=1;fillColor=none;align=left;verticalAlign=middle;spacingTop=-1;spacingLeft=3;spacingRight=3;rotatable=0;labelPosition=right;points=[];portConstraint=eastwest;strokeColor=inherit;" vertex="1" parent="APCj0JSwbc9c1mAj5rAP-211">
          <mxGeometry y="85" width="256" height="2" as="geometry" />
        </mxCell>
        <mxCell id="APCj0JSwbc9c1mAj5rAP-214" value="&lt;div&gt;+ Sala(int numero, int capacidadDeAsientos, String tipoTecnologia)&lt;/div&gt;+ getNumero(): int&lt;div&gt;+ getCapacidadDeAsientos(): int&lt;/div&gt;&lt;div&gt;+ getTipoTecnologia(): String&lt;/div&gt;&lt;div&gt;+ getAsientos(): List&amp;lt;Asiento&amp;gt;&lt;/div&gt;" style="text;strokeColor=none;fillColor=none;align=left;verticalAlign=top;spacingLeft=4;spacingRight=4;overflow=hidden;rotatable=0;points=[[0,0.5],[1,0.5]];portConstraint=eastwest;whiteSpace=wrap;html=1;" vertex="1" parent="APCj0JSwbc9c1mAj5rAP-211">
          <mxGeometry y="87" width="256" height="97" as="geometry" />
        </mxCell>
        <mxCell id="APCj0JSwbc9c1mAj5rAP-215" value="" style="endArrow=none;html=1;edgeStyle=orthogonalEdgeStyle;rounded=0;fontSize=12;startSize=8;endSize=8;curved=1;exitX=0.991;exitY=0.719;exitDx=0;exitDy=0;exitPerimeter=0;entryX=0;entryY=0.837;entryDx=0;entryDy=0;entryPerimeter=0;" edge="1" parent="APCj0JSwbc9c1mAj5rAP-157" source="APCj0JSwbc9c1mAj5rAP-212" target="APCj0JSwbc9c1mAj5rAP-171">
          <mxGeometry relative="1" as="geometry">
            <mxPoint x="528" y="824" as="sourcePoint" />
            <mxPoint x="648" y="825" as="targetPoint" />
          </mxGeometry>
        </mxCell>
        <mxCell id="APCj0JSwbc9c1mAj5rAP-216" value="1" style="edgeLabel;resizable=0;html=1;align=left;verticalAlign=bottom;" connectable="0" vertex="1" parent="APCj0JSwbc9c1mAj5rAP-215">
          <mxGeometry x="-1" relative="1" as="geometry">
            <mxPoint x="7" y="-2" as="offset" />
          </mxGeometry>
        </mxCell>
        <mxCell id="APCj0JSwbc9c1mAj5rAP-217" value="1..*" style="edgeLabel;resizable=0;html=1;align=right;verticalAlign=bottom;" connectable="0" vertex="1" parent="APCj0JSwbc9c1mAj5rAP-215">
          <mxGeometry x="1" relative="1" as="geometry">
            <mxPoint x="-2" y="-2" as="offset" />
          </mxGeometry>
        </mxCell>
        <mxCell id="APCj0JSwbc9c1mAj5rAP-218" value="" style="endArrow=open;endFill=1;endSize=12;html=1;rounded=0;fontSize=12;curved=1;entryX=0.469;entryY=0.014;entryDx=0;entryDy=0;entryPerimeter=0;exitX=0.492;exitY=0.998;exitDx=0;exitDy=0;exitPerimeter=0;" edge="1" parent="APCj0JSwbc9c1mAj5rAP-157" source="APCj0JSwbc9c1mAj5rAP-169" target="APCj0JSwbc9c1mAj5rAP-211">
          <mxGeometry width="160" relative="1" as="geometry">
            <mxPoint x="215" y="826" as="sourcePoint" />
            <mxPoint x="651" y="701" as="targetPoint" />
          </mxGeometry>
        </mxCell>
        <mxCell id="APCj0JSwbc9c1mAj5rAP-219" value="- pelicula" style="text;strokeColor=none;fillColor=none;align=left;verticalAlign=top;spacingLeft=4;spacingRight=4;overflow=hidden;rotatable=0;points=[[0,0.5],[1,0.5]];portConstraint=eastwest;whiteSpace=wrap;html=1;" vertex="1" parent="APCj0JSwbc9c1mAj5rAP-157">
          <mxGeometry x="198" y="578" width="100" height="26" as="geometry" />
        </mxCell>
        <mxCell id="APCj0JSwbc9c1mAj5rAP-220" value="- sala" style="text;strokeColor=none;fillColor=none;align=left;verticalAlign=top;spacingLeft=4;spacingRight=4;overflow=hidden;rotatable=0;points=[[0,0.5],[1,0.5]];portConstraint=eastwest;whiteSpace=wrap;html=1;" vertex="1" parent="APCj0JSwbc9c1mAj5rAP-157">
          <mxGeometry x="202" y="844" width="100" height="26" as="geometry" />
        </mxCell>
        <mxCell id="APCj0JSwbc9c1mAj5rAP-221" value="1" style="text;strokeColor=none;fillColor=none;align=left;verticalAlign=top;spacingLeft=4;spacingRight=4;overflow=hidden;rotatable=0;points=[[0,0.5],[1,0.5]];portConstraint=eastwest;whiteSpace=wrap;html=1;" vertex="1" parent="APCj0JSwbc9c1mAj5rAP-157">
          <mxGeometry x="204" y="876" width="31" height="26" as="geometry" />
        </mxCell>
        <mxCell id="APCj0JSwbc9c1mAj5rAP-222" value="" style="endArrow=open;endFill=1;endSize=12;html=1;rounded=0;fontSize=12;curved=1;exitX=0.5;exitY=0;exitDx=0;exitDy=0;" edge="1" parent="APCj0JSwbc9c1mAj5rAP-157" source="APCj0JSwbc9c1mAj5rAP-166">
          <mxGeometry width="160" relative="1" as="geometry">
            <mxPoint x="143" y="576" as="sourcePoint" />
            <mxPoint x="200" y="543" as="targetPoint" />
          </mxGeometry>
        </mxCell>
        <mxCell id="APCj0JSwbc9c1mAj5rAP-223" value="" style="endArrow=open;endFill=1;endSize=12;html=1;rounded=0;fontSize=12;curved=1;entryX=0.5;entryY=0;entryDx=0;entryDy=0;exitX=0.992;exitY=0.246;exitDx=0;exitDy=0;exitPerimeter=0;" edge="1" parent="APCj0JSwbc9c1mAj5rAP-157" source="APCj0JSwbc9c1mAj5rAP-169" target="APCj0JSwbc9c1mAj5rAP-170">
          <mxGeometry width="160" relative="1" as="geometry">
            <mxPoint x="443.99752475247533" y="943.0000000000002" as="sourcePoint" />
            <mxPoint x="593.75" y="693" as="targetPoint" />
          </mxGeometry>
        </mxCell>
        <mxCell id="APCj0JSwbc9c1mAj5rAP-224" value="Documental" style="swimlane;fontStyle=1;align=center;verticalAlign=top;childLayout=stackLayout;horizontal=1;startSize=26;horizontalStack=0;resizeParent=1;resizeParentMax=0;resizeLast=0;collapsible=1;marginBottom=0;whiteSpace=wrap;html=1;" vertex="1" parent="APCj0JSwbc9c1mAj5rAP-157">
          <mxGeometry x="396" y="183" width="409" height="139" as="geometry" />
        </mxCell>
        <mxCell id="APCj0JSwbc9c1mAj5rAP-225" value="- narrador: String&lt;div&gt;- tipo = &quot;Documental&quot;: String&lt;/div&gt;" style="text;strokeColor=none;fillColor=none;align=left;verticalAlign=top;spacingLeft=4;spacingRight=4;overflow=hidden;rotatable=0;points=[[0,0.5],[1,0.5]];portConstraint=eastwest;whiteSpace=wrap;html=1;" vertex="1" parent="APCj0JSwbc9c1mAj5rAP-224">
          <mxGeometry y="26" width="409" height="40" as="geometry" />
        </mxCell>
        <mxCell id="APCj0JSwbc9c1mAj5rAP-226" value="" style="line;strokeWidth=1;fillColor=none;align=left;verticalAlign=middle;spacingTop=-1;spacingLeft=3;spacingRight=3;rotatable=0;labelPosition=right;points=[];portConstraint=eastwest;strokeColor=inherit;" vertex="1" parent="APCj0JSwbc9c1mAj5rAP-224">
          <mxGeometry y="66" width="409" height="2" as="geometry" />
        </mxCell>
        <mxCell id="APCj0JSwbc9c1mAj5rAP-227" value="+ Documental(String titulo, String genero, int duracion, String clasificacionPorEdad, String fechaDeEstreno, String tipo, String director, List&amp;lt;String&amp;gt; actoresPrincipales, String tematica, String narrador)&lt;div&gt;+ getNarrador(): String&lt;/div&gt;" style="text;strokeColor=none;fillColor=none;align=left;verticalAlign=top;spacingLeft=4;spacingRight=4;overflow=hidden;rotatable=0;points=[[0,0.5],[1,0.5]];portConstraint=eastwest;whiteSpace=wrap;html=1;" vertex="1" parent="APCj0JSwbc9c1mAj5rAP-224">
          <mxGeometry y="68" width="409" height="71" as="geometry" />
        </mxCell>
        <mxCell id="APCj0JSwbc9c1mAj5rAP-228" value="- peliculas" style="text;strokeColor=none;fillColor=none;align=left;verticalAlign=top;spacingLeft=4;spacingRight=4;overflow=hidden;rotatable=0;points=[[0,0.5],[1,0.5]];portConstraint=eastwest;whiteSpace=wrap;html=1;" vertex="1" parent="APCj0JSwbc9c1mAj5rAP-157">
          <mxGeometry x="-228" y="729" width="100" height="26" as="geometry" />
        </mxCell>
        <mxCell id="APCj0JSwbc9c1mAj5rAP-229" value="1..*" style="text;strokeColor=none;fillColor=none;align=left;verticalAlign=top;spacingLeft=4;spacingRight=4;overflow=hidden;rotatable=0;points=[[0,0.5],[1,0.5]];portConstraint=eastwest;whiteSpace=wrap;html=1;" vertex="1" parent="APCj0JSwbc9c1mAj5rAP-157">
          <mxGeometry x="-228" y="549" width="31" height="26" as="geometry" />
        </mxCell>
        <mxCell id="APCj0JSwbc9c1mAj5rAP-238" value="ClienteLeal" style="swimlane;fontStyle=1;align=center;verticalAlign=top;childLayout=stackLayout;horizontal=1;startSize=26;horizontalStack=0;resizeParent=1;resizeParentMax=0;resizeLast=0;collapsible=1;marginBottom=0;whiteSpace=wrap;html=1;" vertex="1" parent="APCj0JSwbc9c1mAj5rAP-157">
          <mxGeometry x="1193" y="345.5" width="264" height="182" as="geometry" />
        </mxCell>
        <mxCell id="APCj0JSwbc9c1mAj5rAP-239" value="- tipo = &quot;Leal&quot;: String&lt;div&gt;- puntos: int&lt;/div&gt;&lt;div&gt;- nivel: String&lt;/div&gt;" style="text;strokeColor=none;fillColor=none;align=left;verticalAlign=top;spacingLeft=4;spacingRight=4;overflow=hidden;rotatable=0;points=[[0,0.5],[1,0.5]];portConstraint=eastwest;whiteSpace=wrap;html=1;" vertex="1" parent="APCj0JSwbc9c1mAj5rAP-238">
          <mxGeometry y="26" width="264" height="54" as="geometry" />
        </mxCell>
        <mxCell id="APCj0JSwbc9c1mAj5rAP-240" value="" style="line;strokeWidth=1;fillColor=none;align=left;verticalAlign=middle;spacingTop=-1;spacingLeft=3;spacingRight=3;rotatable=0;labelPosition=right;points=[];portConstraint=eastwest;strokeColor=inherit;" vertex="1" parent="APCj0JSwbc9c1mAj5rAP-238">
          <mxGeometry y="80" width="264" height="2" as="geometry" />
        </mxCell>
        <mxCell id="APCj0JSwbc9c1mAj5rAP-241" value="&lt;div&gt;+ ClienteLeal(String correoElectronico, String contrasena, String id, String tipo)&lt;/div&gt;&lt;div&gt;+ getPuntos(): int&lt;/div&gt;&lt;div&gt;+ getNivel(): String&lt;/div&gt;&lt;div&gt;+ agregarPuntos(int): void&lt;/div&gt;&lt;div&gt;+ actualizarNivel(String): void&lt;/div&gt;" style="text;strokeColor=none;fillColor=none;align=left;verticalAlign=top;spacingLeft=4;spacingRight=4;overflow=hidden;rotatable=0;points=[[0,0.5],[1,0.5]];portConstraint=eastwest;whiteSpace=wrap;html=1;" vertex="1" parent="APCj0JSwbc9c1mAj5rAP-238">
          <mxGeometry y="82" width="264" height="100" as="geometry" />
        </mxCell>
        <mxCell id="APCj0JSwbc9c1mAj5rAP-242" value="" style="endArrow=block;endSize=16;endFill=0;html=1;rounded=0;fontSize=12;curved=1;exitX=0.003;exitY=0.87;exitDx=0;exitDy=0;entryX=1.003;entryY=0.15;entryDx=0;entryDy=0;entryPerimeter=0;exitPerimeter=0;" edge="1" parent="APCj0JSwbc9c1mAj5rAP-157" source="APCj0JSwbc9c1mAj5rAP-239" target="APCj0JSwbc9c1mAj5rAP-183">
          <mxGeometry x="-0.0722" y="29" width="160" relative="1" as="geometry">
            <mxPoint x="1181" y="316" as="sourcePoint" />
            <mxPoint x="1181" y="259" as="targetPoint" />
            <mxPoint as="offset" />
          </mxGeometry>
        </mxCell>
        <mxCell id="APCj0JSwbc9c1mAj5rAP-244" value="- funciones" style="text;strokeColor=none;fillColor=none;align=left;verticalAlign=top;spacingLeft=4;spacingRight=4;overflow=hidden;rotatable=0;points=[[0,0.5],[1,0.5]];portConstraint=eastwest;whiteSpace=wrap;html=1;" vertex="1" parent="APCj0JSwbc9c1mAj5rAP-157">
          <mxGeometry x="-110" y="703" width="100" height="26" as="geometry" />
        </mxCell>
        <mxCell id="APCj0JSwbc9c1mAj5rAP-136" value="Modelo" style="text;strokeColor=none;fillColor=none;align=left;verticalAlign=top;spacingLeft=4;spacingRight=4;overflow=hidden;rotatable=0;points=[[0,0.5],[1,0.5]];portConstraint=eastwest;whiteSpace=wrap;html=1;" vertex="1" parent="APCj0JSwbc9c1mAj5rAP-157">
          <mxGeometry x="-387" y="-22" width="100" height="26" as="geometry" />
        </mxCell>
        <mxCell id="APCj0JSwbc9c1mAj5rAP-237" value="- salas" style="text;strokeColor=none;fillColor=none;align=left;verticalAlign=top;spacingLeft=4;spacingRight=4;overflow=hidden;rotatable=0;points=[[0,0.5],[1,0.5]];portConstraint=eastwest;whiteSpace=wrap;html=1;" vertex="1" parent="APCj0JSwbc9c1mAj5rAP-157">
          <mxGeometry x="-30" y="954.5" width="100" height="26" as="geometry" />
        </mxCell>
        <mxCell id="APCj0JSwbc9c1mAj5rAP-230" value="Cine" style="swimlane;fontStyle=1;align=center;verticalAlign=top;childLayout=stackLayout;horizontal=1;startSize=26;horizontalStack=0;resizeParent=1;resizeParentMax=0;resizeLast=0;collapsible=1;marginBottom=0;whiteSpace=wrap;html=1;" vertex="1" parent="1">
          <mxGeometry x="-365" y="745" width="263" height="298" as="geometry" />
        </mxCell>
        <mxCell id="APCj0JSwbc9c1mAj5rAP-231" value="- nombre: String&lt;div&gt;- direccion: String&lt;/div&gt;&lt;div&gt;- horaApertura: String&lt;/div&gt;&lt;div&gt;- horaCierre: String&lt;/div&gt;" style="text;strokeColor=none;fillColor=none;align=left;verticalAlign=top;spacingLeft=4;spacingRight=4;overflow=hidden;rotatable=0;points=[[0,0.5],[1,0.5]];portConstraint=eastwest;whiteSpace=wrap;html=1;" vertex="1" parent="APCj0JSwbc9c1mAj5rAP-230">
          <mxGeometry y="26" width="263" height="69" as="geometry" />
        </mxCell>
        <mxCell id="APCj0JSwbc9c1mAj5rAP-232" value="" style="line;strokeWidth=1;fillColor=none;align=left;verticalAlign=middle;spacingTop=-1;spacingLeft=3;spacingRight=3;rotatable=0;labelPosition=right;points=[];portConstraint=eastwest;strokeColor=inherit;" vertex="1" parent="APCj0JSwbc9c1mAj5rAP-230">
          <mxGeometry y="95" width="263" height="2" as="geometry" />
        </mxCell>
        <mxCell id="APCj0JSwbc9c1mAj5rAP-233" value="&lt;div&gt;+Cine(String nombre, String direccion, String horaApertura, String horaCierre)&lt;/div&gt;+ getNombre(): String&lt;div&gt;+ getDireccion(): String&lt;/div&gt;&lt;div&gt;+ getHoraApertura(): String&lt;/div&gt;&lt;div&gt;+ getHoraCierre(): String&lt;/div&gt;&lt;div&gt;+ getSalas(): List&amp;lt;Sala&amp;gt;&lt;/div&gt;&lt;div&gt;+ getFunciones(): List&amp;lt;Funcion&amp;gt;&lt;/div&gt;&lt;div&gt;+ getPeliculas(): List&amp;lt;Pelicula&amp;gt;&lt;/div&gt;&lt;div&gt;+ setHoraApertura(String): void&lt;/div&gt;&lt;div&gt;+ setHoraCierre(String): void&lt;/div&gt;&lt;div&gt;+ agregarFuncion(Funcion): void&lt;/div&gt;&lt;div&gt;+ getBoletosVendidos(): int&lt;/div&gt;" style="text;strokeColor=none;fillColor=none;align=left;verticalAlign=top;spacingLeft=4;spacingRight=4;overflow=hidden;rotatable=0;points=[[0,0.5],[1,0.5]];portConstraint=eastwest;whiteSpace=wrap;html=1;" vertex="1" parent="APCj0JSwbc9c1mAj5rAP-230">
          <mxGeometry y="97" width="263" height="201" as="geometry" />
        </mxCell>
        <mxCell id="APCj0JSwbc9c1mAj5rAP-234" value="" style="endArrow=open;endFill=1;endSize=12;html=1;rounded=0;fontSize=12;curved=1;exitX=1.006;exitY=0.532;exitDx=0;exitDy=0;entryX=0.004;entryY=0.877;entryDx=0;entryDy=0;exitPerimeter=0;entryPerimeter=0;" edge="1" parent="1" source="APCj0JSwbc9c1mAj5rAP-233" target="APCj0JSwbc9c1mAj5rAP-212">
          <mxGeometry width="160" relative="1" as="geometry">
            <mxPoint x="315" y="720" as="sourcePoint" />
            <mxPoint x="475" y="720" as="targetPoint" />
          </mxGeometry>
        </mxCell>
        <mxCell id="APCj0JSwbc9c1mAj5rAP-235" value="" style="endArrow=open;endFill=1;endSize=12;html=1;rounded=0;fontSize=12;curved=1;exitX=0.5;exitY=0;exitDx=0;exitDy=0;entryX=-0.009;entryY=0.873;entryDx=0;entryDy=0;entryPerimeter=0;" edge="1" parent="1" source="APCj0JSwbc9c1mAj5rAP-230" target="APCj0JSwbc9c1mAj5rAP-167">
          <mxGeometry width="160" relative="1" as="geometry">
            <mxPoint y="685" as="sourcePoint" />
            <mxPoint x="-2" y="782" as="targetPoint" />
          </mxGeometry>
        </mxCell>
        <mxCell id="APCj0JSwbc9c1mAj5rAP-236" value="" style="endArrow=open;endFill=1;endSize=12;html=1;rounded=0;fontSize=12;curved=1;entryX=0.104;entryY=0.994;entryDx=0;entryDy=0;entryPerimeter=0;exitX=0.275;exitY=0.017;exitDx=0;exitDy=0;exitPerimeter=0;" edge="1" parent="1" source="APCj0JSwbc9c1mAj5rAP-230" target="APCj0JSwbc9c1mAj5rAP-209">
          <mxGeometry width="160" relative="1" as="geometry">
            <mxPoint x="-159" y="755" as="sourcePoint" />
            <mxPoint x="63" y="595" as="targetPoint" />
          </mxGeometry>
        </mxCell>
      </root>
    </mxGraphModel>
  </diagram>
</mxfile>
